{"title":"Red Factions Origins 2011 DVDRip Xvid BigPerm LKRG","uid":7225136,"size":896030067,"categoryP":"video","categoryS":"movies","magnet":"?xt=urn:btih:2cda71f95cf6e791103e19b358b4fca828544139&amp;dn=Red+Factions+Origins+2011+DVDRip+Xvid+BigPerm+LKRG&amp;tr=udp%3A%2F%2Ftracker.openbittorrent.com%3A80&amp;tr=udp%3A%2F%2Fopen.demonii.com%3A1337&amp;tr=udp%3A%2F%2Ftracker.coppersurfer.tk%3A6969&amp;tr=udp%3A%2F%2Fexodus.desync.com%3A6969","seeders":0,"leechers":1,"uploader":".BONE.","files":3,"time":1335646927,"description":"PLOT\n\nOn a Mars colony in the year 2145, an officer in a rebel militia discovers that his sister, who was abducted a dozen years before, is\nstill alive and has been raised as a soldier whose goal is to bring about the destruction of her brother's faction.\n\n\nEncoded By .......: BigPerm\nRuntime ..........: 1h 31mn\nFile Size ........: 855 MB\nResolution .......: 720 x 480 &lt;a href=&quot;\nhttp://www.imdb.com/title/tt1693872/&quot; rel=&quot;nofollow&quot; target=&quot;_NEW&quot;&gt;\nhttp://www.imdb.com/title/tt1693872/&lt;/a&gt;\nGenre ............: Sci-Fi\nLanguage .........: English\nSubtitles ........: None\nVideo\nID : 0\nFormat : MPEG-4 Visual\nFormat profile : Advanced Simple@L5\nFormat settings, BVOP : Yes\nFormat settings, QPel : No\nFormat settings, GMC : No warppoints\nFormat settings, Matrix : Default (H.263)\nMuxing mode : Packed bitstream\nCodec ID : XVID\nCodec ID/Hint : XviD\nDuration : 1h 31mn\nBit rate : 851 Kbps\nWidth : 720 pixels\nHeight : 480 pixels\nDisplay aspect ratio : 4.615\nFrame rate : 23.976 fps\nStandard : NTSC\nColor space : YUV\nChroma subsampling : 4:2:0\nBit depth : 8 bits\nScan type : Progressive\nCompression mode : Lossy\nBits/(Pixel*Frame) : 0.103\nStream size : 556 MiB (65%)\nWriting library : XviD 64\nAudio\nID : 1\nFormat : AC-3\nFormat/Info : Audio Coding 3\nMode extension : CM (complete main)\nCodec ID : 2000\nDuration : 1h 31mn\nBit rate mode : Constant\nBit rate : 448 Kbps\nChannel(s) : 6 channels\nChannel positions : Front: L C R, Side: L R, LFE\nSampling rate : 48.0 KHz\nBit depth : 16 bits\nCompression mode : Lossy\nStream size : 293 MiB (34%)\nAlignment : Split accross interleaves\nInterleave, duration : 42 ms (1.00 video frame)\nInterleave, preload duration : 500 ms","torrent":{"xt":"urn:btih:2cda71f95cf6e791103e19b358b4fca828544139","amp;dn":"Red+Factions+Origins+2011+DVDRip+Xvid+BigPerm+LKRG","amp;tr":["udp%3A%2F%2Ftracker.openbittorrent.com%3A80","udp%3A%2F%2Fopen.demonii.com%3A1337","udp%3A%2F%2Ftracker.coppersurfer.tk%3A6969","udp%3A%2F%2Fexodus.desync.com%3A6969"],"infoHash":"2cda71f95cf6e791103e19b358b4fca828544139","infoHashBuffer":{"type":"Buffer","data":[44,218,113,249,92,246,231,145,16,62,25,179,88,180,252,168,40,84,65,57]},"announce":[],"urlList":[]}}